<svg
  xmlns="http://www.w3.org/2000/svg"
  width="1024"
  height="1024"
  viewBox="0 0 24 24"
  fill="none"
>
  <!-- 背景（グラデーション） -->
  <defs>
    <linearGradient id="bg" x1="0%" y1="0%" x2="100%" y2="100%">
      <stop offset="0%" style="stop-color:#8B5CF6"/>
      <stop offset="100%" style="stop-color:#6366F1"/>
    </linearGradient>
  </defs>
  <rect width="24" height="24" rx="5" fill="url(#bg)"/>

  <!-- クリップボード -->
  <path
    stroke="white"
    stroke-linecap="round"
    stroke-linejoin="round"
    stroke-width="1.5"
    d="M9 5H7a2 2 0 00-2 2v12a2 2 0 002 2h10a2 2 0 002-2V7a2 2 0 00-2-2h-2M9 5a2 2 0 002 2h2a2 2 0 002-2M9 5a2 2 0 012-2h2a2 2 0 012 2"
  />
  <!-- タスクの中身 -->
  <path
    stroke="white"
    stroke-width="1.5"
    stroke-linecap="round"
    opacity="0.8"
    d="M8 11h3M8 14h4"
  />
</svg>
